<svg xmlns="http://www.w3.org/2000/svg" viewBox="0 0 520 160" fill="white">
  <!-- t -->
  <rect x="20" y="40" width="22" height="90" rx="11"/>
  <rect x="0" y="40" width="62" height="22" rx="11"/>

  <!-- r -->
  <rect x="80" y="62" width="22" height="68" rx="11"/>
  <path d="M 102 74 Q 102 62 116 62 Q 130 62 130 62" stroke="white" stroke-width="22" fill="none" stroke-linecap="round"/>

  <!-- i (stem) -->
  <rect x="148" y="62" width="22" height="68" rx="11"/>
  <!-- i (dot) -->
  <circle cx="159" cy="42" r="13"/>

  <!-- n -->
  <rect x="188" y="62" width="22" height="68" rx="11"/>
  <path d="M 210 74 Q 210 62 224 62 Q 248 62 248 74 L 248 130" stroke="white" stroke-width="22" fill="none" stroke-linecap="round" stroke-linejoin="round"/>

  <!-- o -->
  <rect x="266" y="62" width="22" height="68" rx="11"/>
  <rect x="344" y="62" width="22" height="68" rx="11"/>
  <rect x="266" y="62" width="100" height="22" rx="11"/>
  <rect x="266" y="108" width="100" height="22" rx="11"/>
</svg>
